<?xml version="1.0" encoding="utf-8"?>
<!-- Generator: Adobe Illustrator 13.0.1, SVG Export Plug-In . SVG Version: 6.00 Build 14948)  -->
<!DOCTYPE svg PUBLIC "-//W3C//DTD SVG 1.1//EN" "http://www.w3.org/Graphics/SVG/1.1/DTD/svg11.dtd">
<svg version="1.1" id="Layer_1" xmlns="http://www.w3.org/2000/svg" xmlns:xlink="http://www.w3.org/1999/xlink" x="0px" y="0px"
	 width="198px" height="118.5px" viewBox="0 0 198 118.5" enable-background="new 0 0 198 118.5" xml:space="preserve">
<g>
	<path d="M49.899,44.567c0.087-0.124,0.177-0.249,0.265-0.381c0.152-0.229,0.441-1.064,0.814-1.002
		c0.689,0.114-0.261,1.197-0.374,1.388c-0.277,0.468-1.519,4.521-2.461,3.454c-0.329-0.371,0.056-0.844,0.294-1.134
		c0.348-0.428,0.629-0.814,0.828-1.337c-0.016,0.023-0.028,0.048-0.04,0.073C49.419,45.231,49.657,44.906,49.899,44.567z"/>
	<path d="M7.809,25.458c-0.011,0.723,0.332,1.539,0.558,1.887c0.228,0.347,0.991,1.328,1.133,1.469
		c0.543,0.537,0.163,0.715-0.01,0.991c-0.125,0.199-3.658,4.679-0.031,7.723c0.578,0.488,1.443,1.715,1.544,2.234
		c0.1,0.517,0.224,0.908,0.296,1.166c0.073,0.256,0.471,1.37,0.599,1.718c0.126,0.351,0.533,1.293,0.678,1.807
		c0.146,0.515,0.541,1.125,0.603,1.635c0.062,0.512,0.376,1.032,0.855,1.646c0.479,0.613,0.525,1.461,1.185,1.83
		s1.795,1.436,2.207,1.709s1.314,0.658,2.225,1.285c0.912,0.625,1.842,0.748,1.515,0.154c-0.325-0.596-2.969-1.658-3.183-2.516
		c-0.215-0.855-0.084-1.863-0.073-2.117c0.013-0.254,0.219-1.089,0.219-1.089l0.224-1.175c0,0,0.325-1.591,1.412-1.289
		c1.084,0.304,1.001,0.301,1.25-1.464c0.249-1.764,0.315-1.944,0.872-2.414c0.341-0.288,0.512-0.548,0.586-0.933
		c0.069-0.387,0.339-1.772-2.596-3.218c-2.378-1.226-2.413-2.145-3.561-3.544c-1.147-1.402-1.895-1.016-2.366-1.885
		c-0.473-0.87-0.44-1.912-2.236-2.809c-0.977-0.489-1.674-0.632-1.674-0.632s-0.55-0.099-0.813-0.58
		c-0.286-0.524-0.13-2.713-0.108-3.218c0.023-0.508,0.021-1.185,0.073-1.605c0.091-0.735,0.331-1.094,0.845-1.81
		c0.364-0.509,0.195-1.045,0.504-1.616c0.31-0.571,0.637-0.701,0.637-0.701s0.539-0.218,0.024,1.623
		c-0.013,0.046-0.025,0.094-0.041,0.143c-0.598,2.002,0.089,3.22,0.407,3.236c0,0,0.662-0.148,0.638-3.126
		c0,0,0.113-0.786,0.669-0.677c1.915,0.371,1.776-1.014,1.804-1.088c0.196-0.54,0.115-0.565,0.601-1.143
		c0.572-0.681,1.526-1.56,3.451-1.849c0.507-0.074,1.287-0.663,1.287-0.663s1.94-0.584,2.408-2.466
		c0.367-1.477,0.165-1.769,0.18-2.106c0.015-0.338-0.733-0.625-1.346-0.146c-0.613,0.48-0.967,0.802-1.313,0.954
		c-0.345,0.154-0.471,0.367-0.768,0.135c-0.296-0.232-0.225-0.603,0.035-0.76c0.262-0.156,0.432-0.149,0.709-0.729
		c0.281-0.579,0.535-0.566,1.042-0.543c0.505,0.023,0.593-0.058,1.104-0.118c0.511-0.063,1.688,0.077,1.973-0.588
		c0.284-0.663-0.78-0.22,0.476-1.163c1.256-0.942,0.266-0.923,0.208-0.871C24.669,6.203,13.219,9.392,8.145,22.355
		C8.145,22.355,7.849,23.05,7.809,25.458z"/>
	<path d="M29.57,6.757c0,0-1.41-0.162-0.952,1.172c0.229,0.668-0.33,0.629-0.635,0.744c-0.306,0.116-0.611,0.231-0.748,0.396
		c-0.137,0.167-0.448,0.409-0.592,0.746c-0.145,0.338-0.792,1.714,1.123,1.156c0,0,1.007-0.362,1.647-0.686
		c0.465-0.235,1.991-1.381,2.786-1.717c0.497-0.21,1.89-1.276-0.363-1.522C29.75,6.817,29.57,6.757,29.57,6.757z"/>
	<path d="M41.612,19.968c0.001,0.039-0.039,0.454,0.086,0.36c0.158-0.119,0.246-0.082,0.269-0.238
		c0.021-0.157,0.207-0.09,0.188-0.283c-0.039-0.409,0.117,0.033,0.131-0.195c0,0,0.031-0.238-0.214-0.569
		c-0.244-0.332-0.161-0.409-0.396-0.614c-0.233-0.204-0.841-0.506-0.834-0.647c0.006-0.143,0.113-0.294,0.229-0.362
		c0.116-0.065,1.106-0.119,1.351,0.078c0.25,0.196,0.731,1.661,1.479,2.614c0.677,0.863,2.041-2.353,2.165-1.541
		c0.125,0.813,0.557,1.025,0.523,1.739c-0.031,0.714,0.924,1.959-0.051,2.081c0,0-1.592-0.477-2.191,0.224
		c-0.598,0.7-2.269,0.138-3.424-1.127c-0.251-0.276-0.521-0.769-1.729-0.645c0,0-4.384,0.656-5.209,2.426
		c-0.192,0.409-0.873,1.165-1.282,1.32c0,0-0.962,0.36-1.161,1.162c-0.02,0.075-0.03,0.155-0.033,0.238
		c-0.045,0.967,0.074,1.096-0.343,2.167c-0.098,0.252,0.011,2.281,1.103,4.654c0,0,0.18,1.507,0.631,1.646
		c1.544,0.469,3.896,1.388,5.332-0.001c0,0,0.938-0.747,1.456-0.014c0,0,0.901,0.753,1.646,0.21c1.071-0.781,1.117,0.05,0.878,0.703
		c-0.236,0.651-1.381,0.309-1.003,2.026c0.142,0.65,1.372,0.928,1.241,1.879c0,0-0.111,1.486-0.721,3.944
		c-0.329,1.335-0.064,3.368,0.103,3.799c0,0,0.308,0.724,0.121,1.281c-0.186,0.559-0.096,1.555-0.096,1.555s-0.123,3.179,5.32-2.794
		c0,0,1.202-1.282,1.661-1.943c0.602-0.866,3.536-5.328,3.906-7.303c0,0,0.456-3.228,1.535-4.388
		c3.64-3.912,0.522-3.946,0.256-3.866c-0.61,0.188-1.33,2.099-2.777-0.903c-1.445-3.001-1.278-2.271-1.579-2.769
		c0,0-2.638-2.733-0.019-1.376c2.617,1.359,1.833,1.808,2.631,2.762c0,0,1.151,1.365,1.36,0.93c0.848-1.748,0.854-3.024-0.487-4.339
		c0,0-3.666-2.751-1.972-2.836c0.951-0.05,2.752,1.497,2.841,1.581c0,0,0.395,0.407,1.294,1.366
		c0.355,0.382,0.585,0.825,0.585,0.825c0.224,0.278,0.307,0.396,0.307,0.396c0.069,0.166,0.834,1.078,0.177-1.346
		c0,0-3.589-15.192-17.692-17.775c0,0-2.262-0.407,1.693,3.247c0,0,0.325,0.319,0.535,1.057c0.208,0.737-1.196-0.445-1.758-0.552
		c-0.56-0.106-2.52,0.438-2.174,1.747c0.344,1.307,1.008,0.934,1.591,0.557c0.582-0.377,0.978-0.197,0.959,0.206
		c-0.019,0.404-0.03,0.645-0.696,1.1c-0.668,0.454-0.994,0.52-1.594,1.3c-0.602,0.78-1.253,0.913-1.301,1.96
		c-0.048,1.048,0.065,2.106-0.8,1.581c-0.864-0.524-0.67-1.241-1.419-0.792c-0.749,0.45-1.264-0.625-1.023,1.164
		c0.243,1.789,0.886,1.819,1.605,2.012c0.718,0.195,1.61,0.154,2.028-0.149c0.417-0.305,0.425-0.465,0.931-0.928
		c0.506-0.463,0.376-1.031,1.275-1.234c0,0,0.628-0.149,0.671-0.149c0.043,0.003,0.271-0.026,0.517,0.198
		c0.248,0.225,0.303,0.143,0.604,0.442c0.299,0.299,0.898,0.308,0.805,0.775L41.612,19.968z"/>
</g>
<g>
	<path d="M20.396,79.764c0,0-1.366,0.711,0.072,1.467c0,0,20.938,1.055,21.332-0.297c0,0,0.155-0.895-1.068-0.922
		C40.73,80.012,23.606,79.645,20.396,79.764z"/>
	<path d="M20.376,82.52c0,0-1.366,0.711,0.072,1.467c0,0,20.938,1.057,21.331-0.293c0,0,0.156-0.898-1.067-0.924
		C40.712,82.77,23.589,82.4,20.376,82.52z"/>
	<path d="M20.359,85.277c0,0-1.368,0.711,0.069,1.467c0,0,20.939,1.055,21.332-0.297c0,0,0.156-0.895-1.068-0.92
		C40.691,85.527,23.569,85.156,20.359,85.277z"/>
	<path d="M20.338,88.033c0,0-1.366,0.713,0.071,1.467c0,0,20.939,1.057,21.332-0.295c0,0,0.155-0.895-1.067-0.922
		C40.674,88.283,23.551,87.914,20.338,88.033z"/>
	<path d="M30.043,97.75c0.61,0.029,1.794-0.123,2.472-0.672l2.384-0.143l0.153-0.945l1.843-2.289c0,0,3.011-1.838,2.982-2.357
		c0,0-4.824,0.045-9.742-0.104c-4.921,0.01-9.741-0.15-9.741-0.15c-0.045,0.516,2.913,2.439,2.913,2.439l1.781,2.34l0.125,0.951
		l2.376,0.205C28.253,97.594,29.433,97.762,30.043,97.75z"/>
	<path d="M6.137,29.14L6.137,29.14c-0.377,5.842,1.22,11.731,4.496,16.583l0.022,0.029l0.023,0.03
		c0.576,0.688,2.046,3.068,2.744,4.218c5.4,8.794,5.392,18.039,5.383,23.021c-0.005,2.176,0.01,3.25,0.329,3.854
		c0.31,0.59,0.888,1.691,11.573,1.615c5.087-0.037,10.102-0.33,10.155-0.334c0.393-0.023,0.694-0.365,0.67-0.758
		c-0.022-0.393-0.363-0.693-0.756-0.672c-9.008,0.535-19.331,0.479-20.383-0.541c-0.16-0.354-0.158-1.779-0.154-3.162
		c0.006-5.004,0.004-14.189-5.223-23.126l0.009-0.006c0,0-0.087-0.146-0.152-0.256c-0.21-0.369-0.561-0.93-1.132-1.844
		c-0.907-1.46-1.55-2.417-1.925-2.876C8.719,40.324,7.21,34.757,7.564,29.233l0,0C8.445,15.575,20.271,5.18,33.93,6.059
		c13.657,0.88,24.054,12.706,23.172,26.366c-0.234,3.623-1.222,7.064-2.941,10.23c-1.459,2.69-3.386,5.066-5.725,7.06
		c-1.59,1.359-3.35,2.508-5.223,3.425c-0.355,0.174-0.503,0.602-0.33,0.959c0.175,0.354,0.604,0.5,0.959,0.328
		c1.98-0.969,3.838-2.187,5.521-3.623c2.474-2.107,4.513-4.619,6.057-7.466c1.818-3.35,2.866-6.992,3.11-10.824
		c0.933-14.446-10.064-26.955-24.51-27.887C19.575,3.699,7.066,14.695,6.137,29.14z"/>
</g>
<g>
	<path d="M28.441,59.65c0.029,1.725,1.116,2.436,2.392,2.436c0.914,0,1.479-0.159,1.943-0.348l0.232,0.898
		c-0.45,0.203-1.232,0.449-2.349,0.449c-2.146,0-3.451-1.435-3.451-3.537c0-2.132,1.262-3.8,3.306-3.8
		c2.291,0,2.886,2.016,2.886,3.307c0,0.261-0.015,0.464-0.044,0.608L28.441,59.65z M32.167,58.736
		c0.015-0.798-0.333-2.073-1.754-2.073c-1.305,0-1.856,1.188-1.958,2.073H32.167z"/>
	<path d="M34.98,57.823c0-0.74-0.014-1.319-0.058-1.899h1.131l0.072,1.146h0.029c0.348-0.653,1.16-1.306,2.32-1.306
		c0.972,0,2.479,0.58,2.479,2.987v4.19h-1.276v-4.046c0-1.131-0.421-2.088-1.624-2.088c-0.827,0-1.479,0.595-1.711,1.306
		c-0.058,0.159-0.087,0.392-0.087,0.594v4.234H34.98V57.823z"/>
	<path d="M49.03,61.912c0,1.624-0.333,2.596-1,3.219c-0.696,0.623-1.682,0.841-2.566,0.841c-0.841,0-1.769-0.203-2.334-0.58
		l0.319-0.985c0.464,0.304,1.189,0.565,2.059,0.565c1.305,0,2.262-0.682,2.262-2.465v-0.769H47.74
		c-0.377,0.652-1.146,1.174-2.233,1.174c-1.74,0-2.987-1.479-2.987-3.437c0-2.378,1.551-3.712,3.175-3.712
		c1.218,0,1.871,0.624,2.189,1.204h0.029l0.043-1.044h1.131c-0.043,0.492-0.058,1.059-0.058,1.914V61.912z M47.754,58.679
		c0-0.203-0.015-0.392-0.072-0.565c-0.232-0.754-0.841-1.363-1.784-1.363c-1.218,0-2.088,1.029-2.088,2.668
		c0,1.363,0.71,2.522,2.073,2.522c0.798,0,1.508-0.492,1.769-1.319c0.073-0.203,0.102-0.449,0.102-0.682V58.679z"/>
	<path d="M51.742,54.633c-0.479,0-0.797-0.377-0.797-0.826c0-0.45,0.333-0.812,0.827-0.812c0.493,0,0.812,0.361,0.812,0.812
		c0,0.449-0.319,0.826-0.827,0.826H51.742z M51.133,62.941v-7.018h1.276v7.018H51.133z"/>
	<path d="M54.526,57.823c0-0.74-0.015-1.319-0.058-1.899h1.131l0.073,1.146H55.7c0.348-0.653,1.16-1.306,2.32-1.306
		c0.972,0,2.479,0.58,2.479,2.987v4.19h-1.276v-4.046c0-1.131-0.42-2.088-1.624-2.088c-0.826,0-1.479,0.595-1.711,1.306
		c-0.058,0.159-0.087,0.392-0.087,0.594v4.234h-1.276V57.823z"/>
	<path d="M63.298,59.65c0.028,1.725,1.116,2.436,2.391,2.436c0.914,0,1.48-0.159,1.943-0.348l0.232,0.898
		c-0.449,0.203-1.232,0.449-2.35,0.449c-2.145,0-3.451-1.435-3.451-3.537c0-2.132,1.262-3.8,3.306-3.8
		c2.291,0,2.887,2.016,2.887,3.307c0,0.261-0.016,0.464-0.045,0.608L63.298,59.65z M67.023,58.736
		c0.016-0.798-0.332-2.073-1.754-2.073c-1.305,0-1.855,1.188-1.957,2.073H67.023z"/>
	<path d="M70.563,59.65c0.029,1.725,1.117,2.436,2.393,2.436c0.914,0,1.479-0.159,1.943-0.348l0.232,0.898
		c-0.451,0.203-1.232,0.449-2.35,0.449c-2.146,0-3.451-1.435-3.451-3.537c0-2.132,1.262-3.8,3.307-3.8
		c2.291,0,2.885,2.016,2.885,3.307c0,0.261-0.014,0.464-0.043,0.608L70.563,59.65z M74.289,58.736
		c0.014-0.798-0.334-2.073-1.754-2.073c-1.305,0-1.857,1.188-1.959,2.073H74.289z"/>
	<path d="M77.117,58.113c0-0.827-0.016-1.537-0.059-2.189h1.117l0.057,1.377h0.045c0.318-0.942,1.102-1.537,1.957-1.537
		c0.131,0,0.232,0.015,0.348,0.044v1.188c-0.145-0.014-0.275-0.028-0.449-0.028c-0.9,0-1.537,0.682-1.711,1.624
		c-0.029,0.188-0.045,0.392-0.045,0.608v3.741h-1.275L77.117,58.113z"/>
	<path d="M81.67,61.651c0.391,0.231,1.059,0.492,1.695,0.492c0.914,0,1.35-0.449,1.35-1.044c0-0.608-0.363-0.942-1.291-1.29
		c-1.275-0.464-1.871-1.146-1.871-1.986c0-1.131,0.928-2.06,2.422-2.06c0.711,0,1.334,0.188,1.711,0.436l-0.304,0.913
		c-0.276-0.159-0.784-0.406-1.436-0.406c-0.754,0-1.16,0.436-1.16,0.957c0,0.595,0.406,0.855,1.32,1.204
		c1.204,0.449,1.842,1.059,1.842,2.117c0,1.246-0.973,2.116-2.611,2.116c-0.768,0-1.479-0.203-1.971-0.493L81.67,61.651z"/>
	<path d="M91.166,55.924l0.943,3.552c0.188,0.783,0.377,1.522,0.508,2.248h0.043c0.16-0.711,0.391-1.465,0.623-2.233l1.146-3.566
		h1.072l1.088,3.509c0.262,0.826,0.463,1.58,0.623,2.291h0.043c0.117-0.711,0.305-1.45,0.537-2.276l1-3.523h1.262l-2.262,7.018
		h-1.16l-1.072-3.35c-0.246-0.797-0.449-1.493-0.623-2.32h-0.029c-0.174,0.842-0.393,1.581-0.639,2.335l-1.131,3.335h-1.16
		l-2.117-7.018H91.166z"/>
	<path d="M101.939,54.633c-0.479,0-0.797-0.377-0.797-0.826c0-0.45,0.334-0.812,0.826-0.812c0.494,0,0.813,0.361,0.813,0.812
		c0,0.449-0.318,0.826-0.826,0.826H101.939z M101.33,62.941v-7.018h1.277v7.018H101.33z"/>
	<path d="M106.262,54.241v1.683h1.826v0.971h-1.826v3.785c0,0.87,0.246,1.362,0.957,1.362c0.348,0,0.551-0.028,0.738-0.087
		l0.059,0.972c-0.246,0.087-0.639,0.174-1.131,0.174c-0.596,0-1.074-0.203-1.377-0.536c-0.35-0.392-0.494-1.015-0.494-1.842v-3.828
		h-1.088v-0.971h1.088v-1.291L106.262,54.241z"/>
	<path d="M109.523,52.646h1.275v4.379h0.029c0.203-0.362,0.521-0.696,0.914-0.899c0.377-0.231,0.826-0.362,1.305-0.362
		c0.943,0,2.451,0.58,2.451,3.002v4.176h-1.277V58.91c0-1.146-0.42-2.088-1.623-2.088c-0.826,0-1.465,0.58-1.711,1.276
		c-0.072,0.174-0.088,0.362-0.088,0.608v4.234h-1.275V52.646z"/>
	<path d="M120.428,63.101c-1.885,0-3.365-1.392-3.365-3.61c0-2.349,1.553-3.727,3.48-3.727c2.016,0,3.379,1.465,3.379,3.597
		c0,2.609-1.813,3.74-3.48,3.74H120.428z M120.471,62.144c1.219,0,2.131-1.146,2.131-2.74c0-1.188-0.594-2.683-2.102-2.683
		c-1.494,0-2.146,1.393-2.146,2.727c0,1.537,0.871,2.696,2.104,2.696H120.471z"/>
	<path d="M131.404,61.027c0,0.725,0.014,1.363,0.057,1.914h-1.131l-0.072-1.146h-0.029c-0.318,0.565-1.072,1.305-2.32,1.305
		c-1.102,0-2.42-0.623-2.42-3.073v-4.104h1.275v3.871c0,1.334,0.42,2.247,1.566,2.247c0.855,0,1.449-0.594,1.682-1.174
		c0.072-0.174,0.115-0.406,0.115-0.652v-4.292h1.277V61.027z"/>
	<path d="M135.057,54.241v1.683h1.828v0.971h-1.828v3.785c0,0.87,0.248,1.362,0.957,1.362c0.35,0,0.553-0.028,0.74-0.087
		l0.059,0.972c-0.246,0.087-0.639,0.174-1.131,0.174c-0.596,0-1.074-0.203-1.379-0.536c-0.348-0.392-0.492-1.015-0.492-1.842v-3.828
		h-1.088v-0.971h1.088v-1.291L135.057,54.241z"/>
	<path d="M141.395,52.646h1.275v4.394h0.029c0.449-0.783,1.262-1.276,2.393-1.276c1.74,0,2.957,1.45,2.957,3.567
		c0,2.522-1.594,3.77-3.16,3.77c-1.016,0-1.813-0.392-2.35-1.319h-0.029l-0.072,1.16h-1.102c0.043-0.479,0.059-1.189,0.059-1.813
		V52.646z M142.67,60.129c0,0.159,0.014,0.318,0.043,0.464c0.246,0.884,1,1.493,1.914,1.493c1.35,0,2.133-1.088,2.133-2.697
		c0-1.421-0.727-2.624-2.09-2.624c-0.869,0-1.682,0.608-1.928,1.565c-0.043,0.16-0.072,0.334-0.072,0.537V60.129z"/>
	<path d="M152.516,63.101c-1.885,0-3.365-1.392-3.365-3.61c0-2.349,1.553-3.727,3.48-3.727c2.016,0,3.379,1.465,3.379,3.597
		c0,2.609-1.813,3.74-3.48,3.74H152.516z M152.559,62.144c1.219,0,2.131-1.146,2.131-2.74c0-1.188-0.594-2.683-2.102-2.683
		c-1.494,0-2.146,1.393-2.146,2.727c0,1.537,0.871,2.696,2.104,2.696H152.559z"/>
	<path d="M157.633,58.113c0-0.827-0.014-1.537-0.057-2.189h1.115l0.059,1.377h0.043c0.32-0.942,1.102-1.537,1.957-1.537
		c0.131,0,0.232,0.015,0.35,0.044v1.188c-0.146-0.014-0.275-0.028-0.449-0.028c-0.9,0-1.537,0.682-1.711,1.624
		c-0.029,0.188-0.045,0.392-0.045,0.608v3.741h-1.275L157.633,58.113z"/>
	<path d="M168.334,52.646v8.482c0,0.623,0.016,1.334,0.059,1.813h-1.146l-0.057-1.218h-0.029c-0.393,0.783-1.232,1.377-2.379,1.377
		c-1.695,0-3.016-1.436-3.016-3.566c-0.014-2.35,1.451-3.771,3.146-3.771c1.088,0,1.813,0.508,2.117,1.059h0.029v-4.176H168.334z
		 M167.059,58.78c0-0.175-0.016-0.377-0.059-0.552c-0.188-0.797-0.885-1.464-1.842-1.464c-1.318,0-2.102,1.16-2.102,2.696
		c0,1.436,0.711,2.61,2.074,2.61c0.855,0,1.637-0.58,1.869-1.522c0.043-0.174,0.059-0.348,0.059-0.551V58.78z"/>
	<path d="M171.176,59.65c0.029,1.725,1.117,2.436,2.393,2.436c0.914,0,1.48-0.159,1.943-0.348l0.232,0.898
		c-0.449,0.203-1.232,0.449-2.35,0.449c-2.146,0-3.451-1.435-3.451-3.537c0-2.132,1.262-3.8,3.307-3.8
		c2.291,0,2.885,2.016,2.885,3.307c0,0.261-0.014,0.464-0.043,0.608L171.176,59.65z M174.902,58.736
		c0.016-0.798-0.332-2.073-1.754-2.073c-1.305,0-1.855,1.188-1.957,2.073H174.902z"/>
	<path d="M177.73,58.113c0-0.827-0.016-1.537-0.059-2.189h1.117l0.059,1.377h0.043c0.318-0.942,1.102-1.537,1.957-1.537
		c0.131,0,0.232,0.015,0.348,0.044v1.188c-0.145-0.014-0.275-0.028-0.449-0.028c-0.898,0-1.537,0.682-1.711,1.624
		c-0.029,0.188-0.043,0.392-0.043,0.608v3.741h-1.277L177.73,58.113z"/>
	<path d="M182.283,61.651c0.391,0.231,1.059,0.492,1.697,0.492c0.912,0,1.348-0.449,1.348-1.044c0-0.608-0.363-0.942-1.291-1.29
		c-1.275-0.464-1.869-1.146-1.869-1.986c0-1.131,0.928-2.06,2.42-2.06c0.711,0,1.334,0.188,1.711,0.436l-0.303,0.913
		c-0.277-0.159-0.783-0.406-1.436-0.406c-0.754,0-1.16,0.436-1.16,0.957c0,0.595,0.406,0.855,1.318,1.204
		c1.203,0.449,1.842,1.059,1.842,2.117c0,1.246-0.971,2.116-2.609,2.116c-0.77,0-1.479-0.203-1.973-0.493L182.283,61.651z"/>
</g>
<g>
	<path d="M40.492,66.799c-0.479,0-0.797-0.377-0.797-0.826s0.333-0.813,0.826-0.813c0.493,0,0.812,0.363,0.812,0.813
		s-0.319,0.826-0.826,0.826H40.492z M39.883,75.107V68.09h1.276v7.018H39.883z"/>
	<path d="M43.276,69.989c0-0.74-0.014-1.319-0.058-1.899h1.131l0.072,1.146h0.029c0.348-0.653,1.16-1.306,2.32-1.306
		c0.972,0,2.479,0.58,2.479,2.987v4.19h-1.276v-4.046c0-1.131-0.42-2.088-1.624-2.088c-0.827,0-1.479,0.595-1.711,1.306
		c-0.058,0.159-0.087,0.392-0.087,0.594v4.234h-1.276V69.989z"/>
	<path d="M57.327,74.078c0,1.624-0.333,2.596-1,3.219c-0.696,0.623-1.682,0.841-2.567,0.841c-0.841,0-1.769-0.203-2.334-0.58
		l0.319-0.985c0.464,0.304,1.189,0.565,2.059,0.565c1.305,0,2.262-0.682,2.262-2.465v-0.769h-0.029
		c-0.377,0.652-1.146,1.174-2.233,1.174c-1.74,0-2.987-1.479-2.987-3.437c0-2.378,1.552-3.712,3.176-3.712
		c1.218,0,1.87,0.624,2.189,1.204h0.029l0.043-1.044h1.131c-0.043,0.492-0.058,1.059-0.058,1.914V74.078z M56.05,70.845
		c0-0.203-0.014-0.392-0.072-0.565c-0.232-0.754-0.841-1.363-1.784-1.363c-1.218,0-2.088,1.029-2.088,2.668
		c0,1.363,0.71,2.522,2.074,2.522c0.797,0,1.508-0.492,1.769-1.319c0.073-0.203,0.102-0.449,0.102-0.682V70.845z"/>
	<path d="M60.154,71.816c0.029,1.725,1.117,2.436,2.393,2.436c0.914,0,1.479-0.159,1.943-0.348l0.232,0.898
		c-0.449,0.203-1.232,0.449-2.349,0.449c-2.146,0-3.451-1.435-3.451-3.537c0-2.132,1.261-3.8,3.306-3.8
		c2.291,0,2.885,2.016,2.885,3.307c0,0.261-0.015,0.464-0.043,0.608L60.154,71.816z M63.88,70.902
		c0.015-0.798-0.333-2.073-1.754-2.073c-1.305,0-1.856,1.188-1.958,2.073H63.88z M64.185,65.16l-1.769,2.074h-0.899l1.276-2.074
		H64.185z"/>
	<path d="M66.693,69.989c0-0.74-0.015-1.319-0.058-1.899h1.131l0.073,1.146h0.029c0.348-0.653,1.16-1.306,2.32-1.306
		c0.972,0,2.479,0.58,2.479,2.987v4.19h-1.276v-4.046c0-1.131-0.42-2.088-1.624-2.088c-0.826,0-1.479,0.595-1.711,1.306
		c-0.058,0.159-0.087,0.392-0.087,0.594v4.234h-1.276V69.989z"/>
	<path d="M75.35,66.799c-0.479,0-0.797-0.377-0.797-0.826s0.333-0.813,0.826-0.813c0.493,0,0.812,0.363,0.812,0.813
		s-0.319,0.826-0.826,0.826H75.35z M74.741,75.107V68.09h1.276v7.018H74.741z"/>
	<path d="M78.858,71.816c0.029,1.725,1.117,2.436,2.393,2.436c0.914,0,1.479-0.159,1.943-0.348l0.232,0.898
		c-0.449,0.203-1.232,0.449-2.349,0.449c-2.146,0-3.451-1.435-3.451-3.537c0-2.132,1.262-3.8,3.306-3.8
		c2.291,0,2.885,2.016,2.885,3.307c0,0.261-0.014,0.464-0.043,0.608L78.858,71.816z M82.585,70.902
		c0.015-0.798-0.333-2.073-1.754-2.073c-1.305,0-1.856,1.188-1.958,2.073H82.585z"/>
	<path d="M91.271,73.193c0,0.725,0.015,1.363,0.058,1.914h-1.131l-0.072-1.146h-0.029c-0.318,0.565-1.073,1.305-2.319,1.305
		c-1.103,0-2.422-0.623-2.422-3.073V68.09h1.276v3.871c0,1.334,0.42,2.247,1.565,2.247c0.855,0,1.45-0.594,1.682-1.174
		c0.073-0.174,0.116-0.406,0.116-0.652V68.09h1.276V73.193z"/>
	<path d="M93.401,70.279c0-0.827-0.014-1.537-0.058-2.189h1.116l0.059,1.377h0.043c0.319-0.942,1.103-1.537,1.958-1.537
		c0.13,0,0.231,0.015,0.348,0.044v1.188c-0.145-0.014-0.275-0.028-0.449-0.028c-0.899,0-1.537,0.682-1.711,1.624
		c-0.029,0.188-0.044,0.392-0.044,0.608v3.741h-1.275L93.401,70.279z"/>
	<path d="M97.955,73.817c0.392,0.231,1.059,0.492,1.696,0.492c0.913,0,1.349-0.449,1.349-1.044c0-0.608-0.362-0.942-1.291-1.29
		c-1.275-0.464-1.87-1.146-1.87-1.986c0-1.131,0.928-2.06,2.422-2.06c0.71,0,1.334,0.188,1.711,0.436l-0.305,0.913
		c-0.275-0.159-0.783-0.406-1.436-0.406c-0.754,0-1.16,0.436-1.16,0.957c0,0.595,0.406,0.855,1.319,1.204
		c1.204,0.449,1.842,1.059,1.842,2.117c0,1.246-0.972,2.116-2.61,2.116c-0.769,0-1.479-0.203-1.972-0.493L97.955,73.817z"/>
	<path d="M106.771,73.817c0.392,0.231,1.059,0.492,1.696,0.492c0.914,0,1.349-0.449,1.349-1.044c0-0.608-0.362-0.942-1.29-1.29
		c-1.276-0.464-1.871-1.146-1.871-1.986c0-1.131,0.929-2.06,2.422-2.06c0.71,0,1.334,0.188,1.711,0.436l-0.305,0.913
		c-0.275-0.159-0.783-0.406-1.436-0.406c-0.754,0-1.16,0.436-1.16,0.957c0,0.595,0.406,0.855,1.32,1.204
		c1.203,0.449,1.841,1.059,1.841,2.117c0,1.246-0.972,2.116-2.609,2.116c-0.769,0-1.479-0.203-1.973-0.493L106.771,73.817z"/>
	<path d="M117.631,73.426c0,0.608,0.029,1.203,0.102,1.682h-1.146l-0.116-0.885h-0.043c-0.377,0.551-1.146,1.044-2.146,1.044
		c-1.421,0-2.146-1-2.146-2.016c0-1.696,1.508-2.624,4.22-2.609v-0.146c0-0.58-0.16-1.638-1.596-1.624
		c-0.667,0-1.349,0.188-1.841,0.522l-0.29-0.855c0.58-0.362,1.436-0.609,2.319-0.609c2.161,0,2.683,1.465,2.683,2.871V73.426z
		 M116.384,71.526c-1.392-0.029-2.973,0.217-2.973,1.58c0,0.841,0.552,1.218,1.189,1.218c0.928,0,1.522-0.58,1.726-1.174
		c0.043-0.131,0.058-0.276,0.058-0.406V71.526z"/>
	<path d="M119.676,69.989c0-0.74-0.015-1.319-0.059-1.899h1.131l0.073,1.146h0.028c0.349-0.653,1.16-1.306,2.32-1.306
		c0.972,0,2.479,0.58,2.479,2.987v4.19h-1.276v-4.046c0-1.131-0.42-2.088-1.624-2.088c-0.826,0-1.479,0.595-1.711,1.306
		c-0.058,0.159-0.087,0.392-0.087,0.594v4.234h-1.275V69.989z"/>
	<path d="M127.549,73.817c0.392,0.231,1.059,0.492,1.696,0.492c0.914,0,1.349-0.449,1.349-1.044c0-0.608-0.362-0.942-1.29-1.29
		c-1.276-0.464-1.871-1.146-1.871-1.986c0-1.131,0.929-2.06,2.422-2.06c0.71,0,1.334,0.188,1.711,0.436l-0.305,0.913
		c-0.275-0.159-0.783-0.406-1.436-0.406c-0.754,0-1.16,0.436-1.16,0.957c0,0.595,0.406,0.855,1.319,1.204
		c1.204,0.449,1.842,1.059,1.842,2.117c0,1.246-0.972,2.116-2.609,2.116c-0.769,0-1.479-0.203-1.973-0.493L127.549,73.817z"/>
	<path d="M136.654,75.107v-6.047h-0.971V68.09h0.971v-0.334c0-0.986,0.232-1.885,0.827-2.45c0.479-0.464,1.116-0.652,1.696-0.652
		c0.464,0,0.841,0.102,1.087,0.203l-0.159,0.985c-0.203-0.087-0.449-0.159-0.826-0.159c-1.073,0-1.363,0.957-1.363,2.03v0.377h1.696
		v0.971h-1.682v6.047H136.654z"/>
	<path d="M140.787,70.279c0-0.827-0.015-1.537-0.058-2.189h1.116l0.058,1.377h0.044c0.318-0.942,1.102-1.537,1.957-1.537
		c0.131,0,0.232,0.015,0.349,0.044v1.188c-0.146-0.014-0.276-0.028-0.45-0.028c-0.898,0-1.537,0.682-1.711,1.624
		c-0.028,0.188-0.043,0.392-0.043,0.608v3.741h-1.276L140.787,70.279z"/>
	<path d="M148.283,75.267c-1.885,0-3.363-1.392-3.363-3.61c0-2.349,1.551-3.727,3.479-3.727c2.016,0,3.379,1.465,3.379,3.597
		c0,2.609-1.813,3.74-3.48,3.74H148.283z M148.327,74.31c1.218,0,2.131-1.146,2.131-2.74c0-1.188-0.594-2.683-2.102-2.683
		c-1.494,0-2.146,1.393-2.146,2.727c0,1.537,0.87,2.696,2.103,2.696H148.327z"/>
	<path d="M153.388,69.989c0-0.74-0.015-1.319-0.059-1.899h1.132l0.072,1.146h0.028c0.349-0.653,1.16-1.306,2.32-1.306
		c0.972,0,2.479,0.58,2.479,2.987v4.19h-1.276v-4.046c0-1.131-0.42-2.088-1.623-2.088c-0.827,0-1.479,0.595-1.712,1.306
		c-0.058,0.159-0.087,0.392-0.087,0.594v4.234h-1.275V69.989z"/>
	<path d="M162.914,66.407v1.683h1.827v0.971h-1.827v3.785c0,0.87,0.246,1.362,0.957,1.362c0.348,0,0.551-0.028,0.739-0.087
		l0.058,0.972c-0.246,0.087-0.638,0.174-1.131,0.174c-0.594,0-1.072-0.203-1.377-0.536c-0.349-0.392-0.493-1.015-0.493-1.842v-3.828
		h-1.088V68.09h1.088v-1.291L162.914,66.407z"/>
	<path d="M166.785,66.799c-0.479,0-0.797-0.377-0.797-0.826s0.333-0.813,0.826-0.813s0.812,0.363,0.812,0.813
		s-0.318,0.826-0.826,0.826H166.785z M166.177,75.107V68.09h1.275v7.018H166.177z"/>
	<path d="M170.294,71.816c0.029,1.725,1.117,2.436,2.393,2.436c0.914,0,1.479-0.159,1.943-0.348l0.231,0.898
		c-0.449,0.203-1.232,0.449-2.349,0.449c-2.146,0-3.451-1.435-3.451-3.537c0-2.132,1.262-3.8,3.306-3.8
		c2.291,0,2.886,2.016,2.886,3.307c0,0.261-0.015,0.464-0.043,0.608L170.294,71.816z M174.021,70.902
		c0.015-0.798-0.333-2.073-1.754-2.073c-1.306,0-1.856,1.188-1.958,2.073H174.021z M171.86,65.16l1.275,2.074h-0.898l-1.77-2.074
		H171.86z"/>
	<path d="M176.848,70.279c0-0.827-0.014-1.537-0.058-2.189h1.116l0.059,1.377h0.043c0.319-0.942,1.103-1.537,1.958-1.537
		c0.13,0,0.231,0.015,0.348,0.044v1.188c-0.145-0.014-0.275-0.028-0.449-0.028c-0.899,0-1.537,0.682-1.711,1.624
		c-0.029,0.188-0.044,0.392-0.044,0.608v3.741h-1.275L176.848,70.279z"/>
	<path d="M182.213,71.816c0.029,1.725,1.116,2.436,2.393,2.436c0.913,0,1.479-0.159,1.943-0.348l0.231,0.898
		c-0.449,0.203-1.232,0.449-2.349,0.449c-2.146,0-3.451-1.435-3.451-3.537c0-2.132,1.262-3.8,3.306-3.8
		c2.291,0,2.886,2.016,2.886,3.307c0,0.261-0.015,0.464-0.043,0.608L182.213,71.816z M185.939,70.902
		c0.015-0.798-0.333-2.073-1.755-2.073c-1.305,0-1.855,1.188-1.957,2.073H185.939z"/>
	<path d="M188.578,73.817c0.392,0.231,1.059,0.492,1.697,0.492c0.913,0,1.348-0.449,1.348-1.044c0-0.608-0.362-0.942-1.29-1.29
		c-1.276-0.464-1.87-1.146-1.87-1.986c0-1.131,0.928-2.06,2.421-2.06c0.711,0,1.334,0.188,1.711,0.436l-0.305,0.913
		c-0.275-0.159-0.782-0.406-1.436-0.406c-0.754,0-1.159,0.436-1.159,0.957c0,0.595,0.405,0.855,1.319,1.204
		c1.203,0.449,1.841,1.059,1.841,2.117c0,1.246-0.971,2.116-2.609,2.116c-0.769,0-1.479-0.203-1.973-0.493L188.578,73.817z"/>
</g>
<rect x="78.858" y="71.816" fill="none" width="13.641" height="1.6"/>
<g>
	<path d="M163.276,87.891c-0.372,0.192-1.151,0.384-2.136,0.384c-2.28,0-3.984-1.439-3.984-4.104c0-2.544,1.717-4.248,4.225-4.248
		c0.996,0,1.644,0.216,1.92,0.359l-0.265,0.853c-0.384-0.192-0.947-0.336-1.619-0.336c-1.896,0-3.156,1.212-3.156,3.336
		c0,1.992,1.14,3.252,3.096,3.252c0.648,0,1.296-0.132,1.716-0.336L163.276,87.891z"/>
	<path d="M168.412,86.751c0,0.504,0.024,0.995,0.084,1.392h-0.947l-0.097-0.732h-0.035c-0.313,0.456-0.948,0.864-1.776,0.864
		c-1.176,0-1.776-0.828-1.776-1.668c0-1.404,1.248-2.172,3.492-2.16v-0.12c0-0.479-0.132-1.355-1.32-1.344
		c-0.552,0-1.115,0.156-1.523,0.433l-0.24-0.708c0.48-0.301,1.188-0.504,1.92-0.504c1.788,0,2.22,1.212,2.22,2.375V86.751z
		 M167.381,85.179c-1.152-0.024-2.46,0.18-2.46,1.308c0,0.696,0.456,1.008,0.983,1.008c0.769,0,1.26-0.479,1.428-0.972
		c0.036-0.107,0.049-0.228,0.049-0.336V85.179z"/>
	<path d="M169.948,83.906c0-0.611-0.012-1.092-0.048-1.571h0.937l0.06,0.947h0.024c0.287-0.54,0.96-1.079,1.92-1.079
		c0.804,0,2.052,0.479,2.052,2.472v3.468h-1.056v-3.348c0-0.937-0.349-1.729-1.345-1.729c-0.684,0-1.224,0.492-1.416,1.08
		c-0.048,0.132-0.071,0.324-0.071,0.492v3.504h-1.057V83.906z"/>
	<path d="M180.544,86.751c0,0.504,0.024,0.995,0.084,1.392h-0.947l-0.097-0.732h-0.035c-0.313,0.456-0.948,0.864-1.776,0.864
		c-1.176,0-1.776-0.828-1.776-1.668c0-1.404,1.248-2.172,3.492-2.16v-0.12c0-0.479-0.132-1.355-1.32-1.344
		c-0.552,0-1.115,0.156-1.523,0.433l-0.24-0.708c0.48-0.301,1.188-0.504,1.92-0.504c1.788,0,2.22,1.212,2.22,2.375V86.751z
		 M179.513,85.179c-1.152-0.024-2.46,0.18-2.46,1.308c0,0.696,0.456,1.008,0.983,1.008c0.769,0,1.26-0.479,1.429-0.972
		c0.035-0.107,0.048-0.228,0.048-0.336V85.179z"/>
	<path d="M187.097,79.623v7.02c0,0.516,0.012,1.104,0.048,1.5h-0.948l-0.048-1.008h-0.024c-0.323,0.647-1.02,1.14-1.968,1.14
		c-1.404,0-2.496-1.188-2.496-2.952c-0.012-1.943,1.2-3.119,2.604-3.119c0.899,0,1.5,0.42,1.752,0.876h0.023v-3.456H187.097z
		 M186.04,84.698c0-0.144-0.012-0.312-0.048-0.456c-0.156-0.659-0.731-1.212-1.523-1.212c-1.093,0-1.74,0.96-1.74,2.232
		c0,1.188,0.588,2.16,1.716,2.16c0.708,0,1.356-0.48,1.548-1.261c0.036-0.144,0.048-0.287,0.048-0.455V84.698z"/>
	<path d="M192.784,86.751c0,0.504,0.024,0.995,0.084,1.392h-0.948l-0.096-0.732h-0.036c-0.312,0.456-0.948,0.864-1.775,0.864
		c-1.177,0-1.776-0.828-1.776-1.668c0-1.404,1.248-2.172,3.492-2.16v-0.12c0-0.479-0.132-1.355-1.32-1.344
		c-0.552,0-1.116,0.156-1.523,0.433l-0.24-0.708c0.479-0.301,1.188-0.504,1.92-0.504c1.788,0,2.22,1.212,2.22,2.375V86.751z
		 M191.752,85.179c-1.151-0.024-2.46,0.18-2.46,1.308c0,0.696,0.456,1.008,0.984,1.008c0.768,0,1.26-0.479,1.428-0.972
		c0.036-0.107,0.048-0.228,0.048-0.336V85.179z"/>
</g>
<g>
	<path d="M34.172,111.47c-0.372,0.192-1.151,0.384-2.135,0.384c-2.279,0-3.982-1.438-3.982-4.102c0-2.542,1.715-4.245,4.222-4.245
		c0.996,0,1.643,0.216,1.919,0.359l-0.264,0.852c-0.384-0.192-0.948-0.336-1.619-0.336c-1.895,0-3.154,1.212-3.154,3.334
		c0,1.991,1.139,3.251,3.094,3.251c0.648,0,1.295-0.133,1.715-0.336L34.172,111.47z"/>
	<path d="M37.546,111.854c-1.559,0-2.783-1.151-2.783-2.986c0-1.942,1.283-3.082,2.878-3.082c1.667,0,2.794,1.211,2.794,2.975
		c0,2.158-1.499,3.094-2.878,3.094H37.546z M37.582,111.063c1.008,0,1.763-0.947,1.763-2.267c0-0.983-0.492-2.219-1.739-2.219
		c-1.235,0-1.775,1.151-1.775,2.254c0,1.271,0.72,2.231,1.739,2.231H37.582z"/>
	<path d="M41.651,107.488c0-0.611-0.012-1.092-0.048-1.571h0.936l0.06,0.947h0.024c0.288-0.539,0.959-1.079,1.919-1.079
		c0.804,0,2.051,0.479,2.051,2.471v3.466h-1.055v-3.346c0-0.936-0.348-1.728-1.343-1.728c-0.684,0-1.224,0.492-1.416,1.08
		c-0.048,0.132-0.072,0.323-0.072,0.491v3.502h-1.056V107.488z"/>
	<path d="M52.329,111.518c-0.276,0.133-0.887,0.336-1.667,0.336c-1.751,0-2.891-1.188-2.891-2.974c0-1.787,1.224-3.095,3.119-3.095
		c0.624,0,1.175,0.156,1.463,0.312l-0.24,0.804c-0.252-0.132-0.647-0.275-1.223-0.275c-1.332,0-2.051,0.995-2.051,2.206
		c0,1.344,0.864,2.171,2.015,2.171c0.6,0,0.996-0.144,1.295-0.275L52.329,111.518z"/>
	<path d="M55.738,111.854c-1.559,0-2.783-1.151-2.783-2.986c0-1.942,1.283-3.082,2.878-3.082c1.667,0,2.794,1.211,2.794,2.975
		c0,2.158-1.499,3.094-2.878,3.094H55.738z M55.773,111.063c1.008,0,1.763-0.947,1.763-2.267c0-0.983-0.492-2.219-1.739-2.219
		c-1.235,0-1.775,1.151-1.775,2.254c0,1.271,0.72,2.231,1.739,2.231H55.773z"/>
	<path d="M59.855,107.729c0-0.684-0.012-1.271-0.048-1.812h0.923l0.048,1.14h0.036c0.264-0.779,0.912-1.271,1.619-1.271
		c0.108,0,0.192,0.012,0.288,0.036v0.983c-0.12-0.012-0.228-0.024-0.372-0.024c-0.744,0-1.271,0.564-1.415,1.344
		c-0.024,0.156-0.036,0.323-0.036,0.504v3.094h-1.056L59.855,107.729z"/>
	<path d="M68.588,103.207v7.016c0,0.516,0.012,1.104,0.048,1.499h-0.948l-0.048-1.007h-0.024c-0.324,0.647-1.02,1.139-1.967,1.139
		c-1.403,0-2.495-1.188-2.495-2.95c-0.012-1.942,1.199-3.118,2.603-3.118c0.899,0,1.499,0.42,1.751,0.876h0.024v-3.454H68.588z
		 M67.533,108.28c0-0.145-0.012-0.313-0.048-0.456c-0.156-0.66-0.732-1.212-1.523-1.212c-1.091,0-1.739,0.96-1.739,2.231
		c0,1.188,0.587,2.158,1.715,2.158c0.708,0,1.355-0.479,1.547-1.259c0.036-0.145,0.048-0.288,0.048-0.456V108.28z"/>
	<path d="M70.727,104.85c-0.396,0-0.66-0.312-0.66-0.684s0.276-0.672,0.684-0.672s0.672,0.3,0.672,0.672s-0.264,0.684-0.684,0.684
		H70.727z M70.223,111.722v-5.805h1.056v5.805H70.223z"/>
	<path d="M77,110.331c0,0.503,0.024,0.995,0.084,1.391h-0.947l-0.096-0.731h-0.036c-0.312,0.456-0.947,0.863-1.775,0.863
		c-1.175,0-1.775-0.827-1.775-1.667c0-1.403,1.247-2.171,3.49-2.158v-0.12c0-0.479-0.132-1.355-1.319-1.344
		c-0.552,0-1.116,0.156-1.523,0.432l-0.24-0.707c0.48-0.3,1.188-0.504,1.919-0.504c1.787,0,2.219,1.211,2.219,2.375V110.331z
		 M75.969,108.76c-1.151-0.024-2.459,0.18-2.459,1.307c0,0.696,0.456,1.008,0.984,1.008c0.768,0,1.259-0.479,1.427-0.972
		c0.036-0.107,0.048-0.228,0.048-0.336V108.76z"/>
	<path d="M82.078,103.639v4.797c0,1.799,0.803,2.566,1.883,2.566c1.188,0,1.967-0.791,1.967-2.566v-4.797h1.056v4.725
		c0,2.483-1.308,3.49-3.059,3.49c-1.655,0-2.902-0.936-2.902-3.454v-4.761H82.078z"/>
	<path d="M88.631,107.488c0-0.611-0.013-1.092-0.048-1.571h0.935l0.061,0.947h0.023c0.288-0.539,0.96-1.079,1.919-1.079
		c0.804,0,2.052,0.479,2.052,2.471v3.466h-1.056v-3.346c0-0.936-0.348-1.728-1.344-1.728c-0.684,0-1.223,0.492-1.415,1.08
		c-0.048,0.132-0.072,0.323-0.072,0.491v3.502h-1.055V107.488z"/>
	<path d="M95.674,104.85c-0.396,0-0.659-0.312-0.659-0.684s0.275-0.672,0.684-0.672c0.407,0,0.672,0.3,0.672,0.672
		s-0.265,0.684-0.684,0.684H95.674z M95.171,111.722v-5.805h1.055v5.805H95.171z"/>
	<path d="M98.267,105.917l1.139,3.25c0.192,0.54,0.348,1.02,0.468,1.499h0.036c0.132-0.479,0.3-0.959,0.492-1.499l1.127-3.25h1.104
		l-2.279,5.805h-1.007l-2.207-5.805H98.267z"/>
	<path d="M103.979,108.999c0.023,1.428,0.923,2.016,1.979,2.016c0.756,0,1.224-0.132,1.607-0.288l0.191,0.743
		c-0.372,0.168-1.02,0.372-1.942,0.372c-1.775,0-2.854-1.188-2.854-2.927c0-1.763,1.043-3.142,2.734-3.142
		c1.895,0,2.387,1.667,2.387,2.734c0,0.216-0.013,0.384-0.036,0.504L103.979,108.999z M107.061,108.244
		c0.012-0.66-0.276-1.716-1.451-1.716c-1.08,0-1.535,0.984-1.619,1.716H107.061z"/>
	<path d="M109.282,107.729c0-0.684-0.012-1.271-0.048-1.812h0.924l0.048,1.14h0.036c0.264-0.779,0.911-1.271,1.619-1.271
		c0.107,0,0.191,0.012,0.287,0.036v0.983c-0.12-0.012-0.228-0.024-0.371-0.024c-0.744,0-1.271,0.564-1.416,1.344
		c-0.023,0.156-0.035,0.323-0.035,0.504v3.094h-1.056L109.282,107.729z"/>
	<path d="M112.931,110.654c0.323,0.192,0.875,0.408,1.403,0.408c0.755,0,1.115-0.372,1.115-0.863c0-0.504-0.3-0.78-1.067-1.068
		c-1.056-0.384-1.548-0.947-1.548-1.643c0-0.936,0.768-1.703,2.003-1.703c0.588,0,1.104,0.156,1.416,0.359l-0.252,0.756
		c-0.229-0.132-0.648-0.336-1.188-0.336c-0.624,0-0.96,0.36-0.96,0.792c0,0.491,0.336,0.707,1.092,0.995
		c0.995,0.372,1.523,0.876,1.523,1.751c0,1.031-0.804,1.751-2.159,1.751c-0.636,0-1.224-0.168-1.631-0.407L112.931,110.654z"/>
	<path d="M118.21,104.85c-0.396,0-0.659-0.312-0.659-0.684s0.275-0.672,0.684-0.672c0.407,0,0.671,0.3,0.671,0.672
		s-0.264,0.684-0.684,0.684H118.21z M117.706,111.722v-5.805h1.056v5.805H117.706z"/>
	<path d="M121.665,104.525v1.392h1.512v0.804h-1.512v3.13c0,0.72,0.204,1.128,0.792,1.128c0.288,0,0.456-0.024,0.611-0.072
		l0.048,0.804c-0.203,0.072-0.527,0.144-0.935,0.144c-0.492,0-0.888-0.168-1.14-0.443c-0.288-0.324-0.408-0.84-0.408-1.523v-3.166
		h-0.899v-0.804h0.899v-1.067L121.665,104.525z"/>
	<path d="M124.737,105.917l1.26,3.431c0.144,0.384,0.288,0.839,0.384,1.187h0.023c0.108-0.348,0.229-0.791,0.372-1.211l1.151-3.406
		h1.115l-1.583,4.138c-0.755,1.991-1.271,3.011-1.99,3.646c-0.528,0.443-1.032,0.623-1.296,0.671l-0.264-0.887
		c0.264-0.072,0.611-0.24,0.924-0.517c0.287-0.228,0.636-0.635,0.887-1.175c0.049-0.108,0.084-0.18,0.084-0.252
		c0-0.06-0.023-0.144-0.084-0.264l-2.135-5.361H124.737z"/>
	<path d="M137.982,111.47c-0.372,0.192-1.151,0.384-2.135,0.384c-2.278,0-3.981-1.438-3.981-4.102c0-2.542,1.715-4.245,4.222-4.245
		c0.995,0,1.643,0.216,1.919,0.359l-0.264,0.852c-0.384-0.192-0.948-0.336-1.619-0.336c-1.896,0-3.154,1.212-3.154,3.334
		c0,1.991,1.139,3.251,3.094,3.251c0.647,0,1.296-0.133,1.715-0.336L137.982,111.47z"/>
	<path d="M139.113,103.207h1.056v3.621h0.024c0.168-0.3,0.432-0.575,0.755-0.743c0.313-0.191,0.684-0.3,1.08-0.3
		c0.779,0,2.026,0.479,2.026,2.482v3.454H143v-3.334c0-0.947-0.349-1.727-1.344-1.727c-0.684,0-1.211,0.479-1.415,1.055
		c-0.061,0.145-0.072,0.3-0.072,0.504v3.502h-1.056V103.207z"/>
	<path d="M149.743,110.331c0,0.503,0.024,0.995,0.084,1.391h-0.947l-0.096-0.731h-0.036c-0.312,0.456-0.947,0.863-1.775,0.863
		c-1.175,0-1.774-0.827-1.774-1.667c0-1.403,1.247-2.171,3.489-2.158v-0.12c0-0.479-0.132-1.355-1.319-1.344
		c-0.551,0-1.115,0.156-1.522,0.432l-0.24-0.707c0.479-0.3,1.188-0.504,1.919-0.504c1.787,0,2.219,1.211,2.219,2.375V110.331z
		 M148.712,108.76c-1.151-0.024-2.459,0.18-2.459,1.307c0,0.696,0.456,1.008,0.983,1.008c0.768,0,1.26-0.479,1.428-0.972
		c0.036-0.107,0.048-0.228,0.048-0.336V108.76z"/>
	<path d="M151.317,107.813c0-0.744-0.012-1.344-0.048-1.896h0.947l0.061,0.995h0.023c0.42-0.719,1.115-1.127,2.051-1.127
		c1.415,0,2.471,1.188,2.471,2.95c0,2.087-1.283,3.118-2.639,3.118c-0.779,0-1.438-0.336-1.787-0.911h-0.023v3.154h-1.056V107.813z
		 M152.373,109.359c0,0.144,0.012,0.3,0.048,0.432c0.18,0.731,0.827,1.235,1.571,1.235c1.115,0,1.763-0.911,1.763-2.243
		c0-1.163-0.6-2.158-1.715-2.158c-0.72,0-1.403,0.504-1.607,1.295c-0.023,0.144-0.06,0.3-0.06,0.432V109.359z"/>
	<path d="M159.297,104.525v1.392h1.511v0.804h-1.511v3.13c0,0.72,0.204,1.128,0.791,1.128c0.288,0,0.456-0.024,0.612-0.072
		l0.048,0.804c-0.204,0.072-0.528,0.144-0.936,0.144c-0.492,0-0.888-0.168-1.14-0.443c-0.288-0.324-0.407-0.84-0.407-1.523v-3.166
		h-0.9v-0.804h0.9v-1.067L159.297,104.525z"/>
	<path d="M162.405,108.999c0.023,1.428,0.923,2.016,1.979,2.016c0.756,0,1.224-0.132,1.607-0.288l0.191,0.743
		c-0.371,0.168-1.02,0.372-1.942,0.372c-1.775,0-2.854-1.188-2.854-2.927c0-1.763,1.043-3.142,2.734-3.142
		c1.895,0,2.387,1.667,2.387,2.734c0,0.216-0.012,0.384-0.036,0.504L162.405,108.999z M165.487,108.244
		c0.012-0.66-0.276-1.716-1.451-1.716c-1.079,0-1.535,0.984-1.619,1.716H165.487z"/>
	<path d="M167.709,107.729c0-0.684-0.012-1.271-0.048-1.812h0.924l0.048,1.14h0.036c0.264-0.779,0.911-1.271,1.619-1.271
		c0.107,0,0.191,0.012,0.287,0.036v0.983c-0.119-0.012-0.228-0.024-0.371-0.024c-0.744,0-1.271,0.564-1.415,1.344
		c-0.024,0.156-0.036,0.323-0.036,0.504v3.094h-1.056L167.709,107.729z"/>
</g>
<rect fill="none" width="198" height="118.5"/>
</svg>
